<?xml version="1.0"?>
<svg xmlns="http://www.w3.org/2000/svg" xmlns:xlink="http://www.w3.org/1999/xlink" version="1.1" id="Layer_1" x="0px" y="0px" viewBox="0 0 512 512" style="enable-background:new 0 0 512 512;" xml:space="preserve" width="512px" height="512px" class=""><g><polygon style="fill:#8AE9FF;" points="256,298.862 10.199,79.528 10.199,213.138 256,432.472 501.801,213.138 501.801,79.528 " data-original="#8AE9FF" class=""/><g>
	<path style="fill:#048FA7" d="M256,442.671c-2.428,0-4.856-0.864-6.791-2.59L3.409,220.748C1.24,218.814,0,216.045,0,213.138   V79.528c0-4.02,2.361-7.666,6.03-9.308c3.67-1.644,7.961-0.978,10.96,1.698L256,285.193L495.01,71.919   c2.999-2.676,7.291-3.342,10.96-1.698c3.669,1.642,6.03,5.288,6.03,9.308v133.61c0,2.907-1.24,5.675-3.409,7.61L262.791,440.081   C260.856,441.807,258.428,442.671,256,442.671z M20.398,208.57L256,418.803L491.602,208.57V102.298L262.791,306.472   c-3.869,3.452-9.712,3.452-13.58,0L20.398,102.298V208.57z" data-original="#248A9C" class="active-path" data-old_color="#248A9C"/>
	<path style="fill:#048FA7" d="M423.27,248.538c-2.806,0-5.598-1.15-7.614-3.409c-3.75-4.203-3.383-10.65,0.82-14.401l7.139-6.37   c4.203-3.749,10.651-3.381,14.4,0.82c3.75,4.203,3.383,10.65-0.82,14.401l-7.139,6.37   C428.113,247.685,425.687,248.538,423.27,248.538z" data-original="#248A9C" class="active-path" data-old_color="#248A9C"/>
	<path style="fill:#048FA7" d="M256.003,397.795c-2.806,0-5.598-1.15-7.614-3.409c-3.75-4.203-3.383-10.65,0.82-14.4   l140.749-125.593c4.203-3.751,10.651-3.383,14.4,0.819c3.75,4.203,3.383,10.65-0.82,14.4L262.79,395.205   C260.846,396.941,258.42,397.795,256.003,397.795z" data-original="#248A9C" class="active-path" data-old_color="#248A9C"/>
</g></g> </svg>
